<?xml version="1.0" encoding="UTF-8"?>
<svg id="_레이어_1" data-name="레이어_1" xmlns="http://www.w3.org/2000/svg" version="1.1" viewBox="0 0 267.33 156">
  <!-- Generator: Adobe Illustrator 30.1.0, SVG Export Plug-In . SVG Version: 2.1.1 Build 136)  -->
  <defs>
    <style>
      .st0 {
        fill: #fefefe;
      }
    </style>
  </defs>
  <path class="st0" d="M43.39,80.15c1.87.46,3.54-1.33,3.84-3.18l3.01-18.86c.14-.9.19-1.82.27-2.69l.35-3.96.33-4.33.34-5.64.33-5.66.31-4.68.36-5.29.35-5.33c.11-1.6.3-3.09.34-4.68l.12-5.28c.05-1.95.03-3.78-.01-5.73l-.08-3.6c-.01-.55-.7-.71-.96-1.02h-1c-.49,1.46-.89,2.94-.64,4.66.15,1.06-.27,2-.29,3.02l-.25,14.75-.21,5.53-.35,5.32-.35,5.3-.33,4.33-.33,3.99-.33,3.99-.37,4.25c-.24,2.71-1.87,20.76-4.61,21.54-2.84-2.83-4.7-12.96-5.54-17.21l-7.46-37.67c-.33-1.65-1.13-3.1-2.64-3.79-.97-.44-2.04.62-2.33,1.64l-6.49,22.02-9.05,28.81c-.33,1.06-1.55,2.62-2.56,1.89-.63-.98-.63-2.89-.73-4.12l-.32-4.03-.32-4.33-.33-4.32-.34-5.64-.33-5.66-.34-5.65-.34-6.33-.21-5.85c-.01-.4-.32-17.08-.52-15.79.13-.84-.13-1.41-.63-1.87-.4-.36-1.25-.82-1.79-.2C.46,9.32.64,10.27,0,10.54v1.33C.57,12.52.57,13.88,0,14.53v1.33c.78-.47.78,5.57.84,7.15l.34,8.61.23,7.19c.07,2.21,1.04,15.77.91,16.63-.1.6.49,6.81.6,7.98l.35,3.66c.19,1.97.15,8.02,3.5,8.82,2.01.48,3.94-1.82,4.92-3.4,1.55-2.49,2.01-5.03,2.88-7.85l12.23-39.63c.49-.28,1.06.38,1.16.86l2.99,14.63c1.34,6.57,6.56,32.49,9.04,36.9.65,1.16,2.1,2.45,3.39,2.76Z"/>
  <path class="st0" d="M265.73,49.87l-5.3,6.64c-1.39,1.74-2.95,3.1-5.1,3.91l.09-17.28c.01-1.85,1.21-6.67-.93-7.01-.82-.13-1.29.54-1.47,1.4l-1.03,5.08-2.09-3.07c-.54-.8-2.09-1.38-3.09-.92-4.17,1.87-4.58,8.11-5.72,11.98-.87,2.97-5.16,10.28-8.04,6.49-3.33-4.38-3.25-11.4-5.04-12.47-2.71-1.62-6.18,7.38-7.04,9.39-.12.27-.49.39-.57.62-.1.28-.48,0-.67-.28l.04-12.84c0-1.34.8-2.87,0-4.1-.32-.49-1.43-.21-2.05-.21-.25,2.78-.38,4.49-.59,7.28l-.33,4.32c-.18,2.33-.57,11.26,1.57,12.19.95.41,2.72-1.69,2.88-2l4.7-9.25c1.55-3.05,1.55,4.44,6.02,9.38,1.47,1.63,3.96,1.82,5.45.39l3.6-3.48c1.11.93,2.11,1.93,3.53,2.2,2.08.41,3.53-1.73,4.86-3.03,1.08-1.44,1.73-3.01,3.48-4.28l.12,11.59c-2.69,3.1-5.56,6.09-7.28,9.94-1.87,4.2-3.63,13.18-3.18,17.65.28,2.79.87,5.75,3.23,7.46,1.17.85,2.74,1.08,3.81.07,4.16-3.93,5.85-12.08,5.93-17.38l.21-15.14c.02-1.53,1.34-2.86,2.51-3.74,4-3.02,6.79-6.95,9.07-11.22v-1.33c-.63,0-1.15.51-1.61,1.08ZM244.89,55.85c-1.94-1.89.1-6.14.38-10.1.12-1.71.64-3.29,2.15-4.44,4.09,3.97,2.19,12.07-2.53,14.54ZM253.22,76.28c-.45,5.53-.74,10.96-2.77,16.17-.41,1.05-1.15,2.78-2.4,3.01-2.08.38-2.6-1.99-2.78-3.37-.66-4.91.41-12.48,2.08-17.03,1.15-3.14,2.62-5.97,5-8.33.12-.12.41-.3.52-.28.87.19.48,8.43.37,9.82Z"/>
  <path class="st0" d="M236.19,90.68c-.64-.07-1.25.29-1.43,1.08-1.86,8.07-2.82,16.11-3.6,24.33-.2,2.08.08,4.13-.23,6.16-.24,1.59-.18,2.84,0,4.43.18,1.58-.13,11.99,2.98,9.31,1.01-.88-.07-3.24-.11-5.13-.09-4.64-.27-9.14.05-13.79.58-8.5,1.85-16.68,3.54-25,.16-.78-.74-1.33-1.2-1.38Z"/>
  <path class="st0" d="M133.47,55.16c1.83,1.39,4.6.61,5.94-1.09,1.4-1.77,2.49-3.39,4.1-5.13.89,4.2.91,8.07-.08,12.06-5.55,5.04-8.43,11.9-9.36,19.29l-.3,2.42c-.43,3.4-.55,6.79.71,9.98.93,2.33,3.34,4.1,5.81,3.07,3.86-1.62,6.34-14.22,6.38-17.8l.19-16.49c0-.61.7-.61,1.04-.95l7.79-7.83c.47-.47.57-1.35,1.37-1.24,1.27,3.41,4.2,7.91,7.92,7.74,1.47-.07,2.9-.6,3.92-2l2.75-3.76,1.76,9.06c.43,2.22,1.37,4.4,3.31,5.69,5.15,3.44,9.76-10.88,11.94-13.13.95,3.95,1.41,11.26,4.72,13.42,3.23,2.11,6.58-3.16,7.92-5.5,1.27-2.22,2.03-4.6,3.8-6.76l1.91,4.97c.34.88,1.03,1.43,1.68,1.56.66.13,1.99.23,2.01-.58-.07-1.34-1.49-2.25-1.83-3.49-.87-3.16-1.61-6.52-.99-9.77l1.44-7.55c.1-.52-.18-1.9-.84-1.76-3.62.76-2.36,5.88-3.16,8.52-.99,3.26-6.87,18.56-10.3,17.96-2.22-.38-3.36-8.62-3.44-10.44l-.2-4.8c-.08-2.01-.09-3.73-.05-5.72l.18-8.9c.02-1.12.46-2.19.27-3.35-.23-1.39.26-2.66.29-3.99.05-2.78.04-5.47,1.46-7.85,7.47-1.54,14.75-2.69,22.23-3.73.7-.1,1.81-1.07,1.2-1.57-1.17-.94-2.92-.49-4.31-.25l-19.02,3.36c1.14-2.93,5.04-.48,6.68-2.69.03-.44-.52-1.27-.95-1.43-1.51.23-3.26.2-4.88.15-.54-1.56,1.07-4.42-.27-4.59-.28-.04-1.2-.28-1.34.1l-1.99,5.4-14.12,2.71,1.23-7.72c.06-.39-.67-1.28-.99-1.15-.28.11-.89.37-1.11.76-2.6,4.41-.48,8.64-4.04,9.61-4.22,1.15-8.17,2.76-12.08,4.96,1.01,1.42,2.4.91,3.73.29,3.03-1.41,6.05-2.37,9.28-3.51-.07,2.55,0,4.7-.14,7.01l-.33,5.29c-.49,7.82.82,16.22-5.42,22.22-.63.6-1.41,1.09-2.33.87-1.92-.45-2.94-2.01-3.91-3.42-4.36-6.35,4.53-8.64,2.66-17.05-.26-1.17-1.66-2.33-2.81-2.43-4.52-.39-4.09,9.88-3.94,12.67-1.56,3.86-6.4,9.2-10.08,11.29-.21-5.23-.48-7.65-.22-12.96.07-1.35.41-2.62.27-4.03-.38-3.64,1.19-5.78-.29-7.17-.35-.33-1.41-.9-1.77-.24-1.06,1.92-.86,4.16-1.5,6.29l-2.41-3.13c-1.34-1.74-3.68-.58-4.99,1-2.6,3.13-3.18,8.16-3.45,12.27-.11,1.66-.15,3.84,1.38,5ZM174.53,38.8l.34-4.68.33-4.97c.21-3.2.23-5.2.74-8.13,4.47-1.41,8.87-2.04,13.48-2.61.34-.04.69.35.85.41.22.08-.01.77-.35.89-.76.27-15.39,5.06-13.04,6.27,1.27.65,2.78-.19,4.02-.67l8.5-3.3c.89,1.8.26,3.45.1,5.14l-.34,3.66c-.2,2.16-.3,4.18-.32,6.31l-.08,10.83c-2.41,5.83-5.13,12.57-8.88,17.2-.37.45-1.15.62-1.58.6-4.36-.22-4.05-23.16-3.78-26.95ZM160.65,37c1.29,2.42.12,5.22-1.46,7.07-.98-2.59-.13-5.03,1.46-7.07ZM143.66,79.93c-.09,2.93-1.8,13.44-5.34,13.47-3.33.02-2.42-8.22-2.19-10.33.84-7.52,2.07-13.85,7.87-19.14.37,6.22.17,10.39-.34,16.01ZM134.92,50.87l1.54-8.77c.2-1.11.68-2.95,1.99-2.99,3.76,4.42,2.29,10.88-2.28,14.43-.94-.61-1.44-1.64-1.26-2.67Z"/>
  <path class="st0" d="M76.11,11.38c1.54-1.78,1.82-11.76-.44-9.71-.55.5-1.07,1.43-1.07,2.21l-.03,5.67c0,.72.76,2.13,1.54,1.83Z"/>
  <path class="st0" d="M106.6,135.6c-.1-3.09-.19-6.13.09-9.15l.36-3.99.3-10.96.31-14.73c.04-1.93.65-4.39-1.1-5.78-1.76-1.39-4.27.07-5.07,2.03-2.79,6.87-4.86,13.69-6.66,20.92l-5.63,22.61c-.12.48-.69,1.18-1.23.87-.03-3.21-.03-6.49.1-9.64l.29-7c.12-2.77.24-5.51.03-8.3-.28-3.67-.48-13.59-4.43-14.74-5.7-1.66-12.15,17.25-13.16,18.37-.28.31.26,1.34-.59,1.56-.24-5.38-.3-9.27-.47-14.52l-.26-8.1c-.12-3.83-.62-6.57-1.05-10.22-.36-2.99-1.84-5.56-4.12-7.54-2.07-1.8-5.05-2.01-7.63-.71-2.72,1.37-4.87,3.58-7.01,5.93-7.6,8.32-12.62,18.41-16.02,29.15-.39,1.23-.67,3.17.87,3.41,1.1.17,2.22-1.39,2.44-2.47,2.14-10.66,7.1-20.38,14.51-28.33,1.95-2.09,3.54-4.3,6.06-5.55,2.91-1.45,5.74-.57,7.12,2.33,2.39,5.06,2.34,11.95,2.89,17.95l.31,3.37v17.23s-.35,3.7-.35,3.7l-.33,3.99-.33,3.99-.33,4.33-.34,3.99-.34,4.26c-.23,2.89-.51,5.48-1.06,8.4-.24,1.26.22,4.03,1.97,3.44,1.91-.65,1.74-7.75,1.89-10.12.27-4.35.96-8.45,1.46-12.78,1.07-9.28,3.54-18.04,7.99-26.26.74-1.36,4.32-8.7,5.95-5.31,2.08,4.33,2.02,14.72,1.76,19.77l-.32,6.3c-.13,2.63-.48,5.11-.06,7.76.48,3.09-.08,9.13,3.21,8.49,1.92-.37,3.02-6.07,3.5-8.08l3.34-13.92c1.79-7.46,3.45-14.74,5.98-21.94.66-1.87,1.36-3.63,2.79-5.16.97,1.24.98,2.37.98,3.56l-.07,14.27c0,1.23-.48,2.4-.28,3.69.24,1.49-.18,2.87-.27,4.31-.12,1.89.02,3.64-.2,5.51-.48,4.01-.73,18.06,3.93,20,1.11.46,1.28-1.97.82-2.77-1.33-2.32-2.44-4.72-2.54-7.43Z"/>
  <path class="st0" d="M180.11,116.89c.27-.81-.59-2.69-1.51-2.06-2.95,2.01-1.52,7.58-4.33,12.59-1.3,2.31-2.44,4.7-4.61,6.38-.59.45-2.01,1.25-2.58.56-1.17-1.43-.52-3.49-.39-5.16.23-2.8.51-9.19-1.5-11.27l-2.99-3.08-.18-7.84c-.03-1.11-1.8-2.26-2.85-2.33-2.43-.15-3.96,1.72-4.62,3.72-2.05,6.18,2.99,8.08,3.23,8.8.18.56-.13.92-.32,1.44-1.92,5.33-4.1,12.1-8.85,15.42-.48.34-1.05.55-1.38.29-.3-.24-.77-.62-.74-1.14.11-2.06-.26-4.19.09-6.22.31-1.78.22-3.34.03-5.07-.52-4.69-3.18-5.22-4.56-7.75-.8-1.46.16-3.17.31-4.65.17-1.82-.9-4.91-3.08-5.2-1.45-.19-2.64.08-3.56,1.24-1.51,1.92-2.29,4.49-1.75,6.94.45,2.05,2.02,3.23,3.95,4.16l-3.98,9.71c-.95,2.32-2.57,4.63-4.88,5.72-1.69.8-3.41-.78-4.12-2.29-4.16-8.77.17-17.17-5.08-18.75-1.29-.39-3.49.26-4.21,1.74-1.68,3.43-6.02,15.67-2.95,17.83,3.27,2.3,5.67-5.81,7.28-4.99.65.33,1.81,4.66,4.54,7.28,1.53,1.47,4.04,2.44,5.98,1.27,2.51-1.52,3.91-4.23,5.13-6.79l4.08-8.58c.24-.5.2-1.13.7-1.17.41-.03.93-.17,1.32.1,1.49.99,1.8,2.79,1.8,4.53,0,1.99.09,3.88.16,5.8l.23,6.17c.04,1.11,1.49,2.42,2.59,2.59,2.06.31,3.63-.97,4.89-2.31,1.11-1.19,2.34-2.13,3.07-3.6l2.21-4.43c1.45-2.9,2.34-5.87,3.95-8.88,3.89,1.13,2.46,2.86,3.1,8.03.37,2.97-.3,5.88.26,8.85.21,1.09,1.77,2.42,2.72,2.78,3.09,1.19,7.34-5.27,9.14-7.6.82,2.11,1.43,8.18,3.79,8.25.6.02,1.53-.28,1.78-.91-3.72-4.73-3.08-14.89-1.3-20.13ZM114.16,127.85c-.44-2.37,2.93-13.26,3.93-13.49,4.95-1.16-1.01,12.39-3.93,13.49ZM138.03,113.47c-1.98-.27-1.59-5.6.63-6.26,1.37,1.73,1.24,4.92-.63,6.26ZM158.34,113.91c-2.32.04-1.71-5.85.59-6.32,1.07,1.75,1.49,4.7-.59,6.32Z"/>
  <circle class="st0" cx="234.04" cy="140.92" r="2.06"/>
  <path class="st0" d="M223.32,141.81c-1.18,1.02-2.58.87-3.76-.11-3-2.49-4.86-12.67-4.91-16.74l4.97-11.77c2.55-6.04,4.12-12.3,5.15-18.8.64-4.03.18-9.91-4.13-11.26-2.52-.79-4.9,3.79-5.79,5.69-2.44,5.16-3.24,10.65-3.32,16.31l-.21,14.34c-1.29-.44-2.18-4.56-4.94-2.84-1.09.68-1.85,1.79-2.33,3-1.52,3.8-3.24,7.19-5.08,10.92-.7,1.42-2.12,3.6-4.25,2.9-2.47-.81-5.22-4.3-4.84-7.05.4-2.93,4.49-7.43,4.27-12.13-.07-1.45-.98-2.97-2.27-3.25-1.44-.3-2.89.14-3.67,1.43-.67,1.11-1.16,2.48-1.12,3.85.19,6.77-1.35,13.41,4.8,18.12,3.55,2.72,5.96.6,8.34-1.46.77,1.1,1.22,2.2,2.08,3,3.07,2.88,6.33-1.59,7.81-3.95.69-1.11,1.22-2.28,2.11-3.08l2.92,10.29c.76,2.69,3.47,4.89,6.11,5.36,1.87.33,3.86-.32,4.25-2.15.17-.8-1.6-1.14-2.21-.62ZM191.26,113.44c.59,2.47.32,5.01-1.63,7.22-.6-2.45-.54-5.12,1.63-7.22ZM204.95,133.82c-.35.27-.94.17-1.22-.02-1.69-1.14,1.58-11.49,3.98-13.83.96,1.96,1.49,3.55,2.55,5.15,1.17,1.76-3.57,7.34-5.31,8.7ZM213.75,117.25l.05-9.89c0-.98.3-1.96.4-2.95.28-2.78,1.91-21.65,7.42-18.26,1.28,2.61,1.24,5.32.82,8.26-.52,3.91-5.29,21.66-7.67,23.81-.55.5-1.02-.53-1.02-.97Z"/>
  <path class="st0" d="M115.7,46.47c-.2-.24-.57-.78-.95-.63-.27.11-.8.51-.99.88l-3.3,6.29c-.7,1.33-1.32,2.3-2.66,2.64-4.08,1.03-6.34-4.32-6.62-7.43,1.26-3.72,5.25-7.29,4.25-12.25-.34-1.69-1.27-2.7-2.73-2.87-5.52-.66-4.27,11.03-4.5,14.19-.27,3.73-5.62,10.89-7.62,9.67-.28-.17-.65-.72-.66-1.24l-.05-10.6c-.03-6.08-5.7-6.34-4.53-9.52.39-1.07.76-6.38-1.59-7.96-1.76-1.18-4.33-.33-5.29,1.32-1.55,2.65-2.28,7.45.79,9.22.54.31,1.85,1.19,1.61,1.91l-1.65,5.07c-.16.48.11,1.71.65,1.63,2.24-1.05,2.37-5.94,3.96-6.26.62-.12,1.65-.27,1.96.36,2.28,4.69.03,11.8,2,17.41.51,1.46,3.26,2.02,4.54,1.2,2.91-1.88,4.63-4.8,6.83-7.59,1.91,2.04,4.45,6.18,7.4,6.15,4.91-.05,7.13-6.6,8.85-10.37.2-.44.61-.83.29-1.21ZM81.29,36.08c-2.28-.54-.85-4.99-.37-5.74.16-.26,1.02-.15,1.34.27,1.02,1.37.93,4.54-.96,5.47ZM102.75,35.82c1.11,2.62.19,5.24-1.86,7.09-1.08-1.68.45-6.56,1.86-7.09Z"/>
  <path class="st0" d="M64.57,56.98c4.73,1.7,7.91-6.1,9.32-9.2.28-.61.82-1.12.62-1.74-.14-.44-.33-1.02-1.05-1.38-2.49,2.87-3.62,9.1-7,10.32-2.4.87-4.5-2.31-5.46-3.94-3.23-5.45,3.82-8.18,3.46-15.34-.11-2.24-2.01-4.21-4.17-3.42-1.81.66-2.7,2.83-2.86,4.73-.36,4.44-.37,8.86.75,13.25.79,3.07,3.52,5.7,6.38,6.72ZM61.26,34.5c1.67,1.08.11,8.2-2.04,8.05.11-2.82.59-5.49,2.04-8.05Z"/>
</svg>